<svg xmlns="http://www.w3.org/2000/svg" width="640" height="400" viewBox="0 0 640 400">
  <style>
    .ink-stroke { stroke: #0A0A0A; }
    .ink-fill { fill: #0A0A0A; }
    .muted { stroke-opacity: 0.22; fill-opacity: 0.22; }
    @media (prefers-color-scheme: dark) {
      .ink-stroke { stroke: #F4F4F4; }
      .ink-fill { fill: #F4F4F4; }
    }
  </style>

  <!-- CLIA Org card: retro terminal motif (no text except CLIA). Background omitted. -->

  <rect x="64" y="72" width="512" height="256" rx="26" fill="none" class="ink-stroke" stroke-width="8"/>
  <rect x="96" y="104" width="448" height="192" rx="14" fill="none" class="ink-stroke muted" stroke-width="6"/>

  <g class="ink-fill" fill-opacity="0.05">
    <rect x="96" y="124" width="448" height="2"/>
    <rect x="96" y="144" width="448" height="2"/>
    <rect x="96" y="164" width="448" height="2"/>
    <rect x="96" y="184" width="448" height="2"/>
    <rect x="96" y="204" width="448" height="2"/>
    <rect x="96" y="224" width="448" height="2"/>
    <rect x="96" y="244" width="448" height="2"/>
    <rect x="96" y="264" width="448" height="2"/>
  </g>

  <!-- Abstract terminal blocks -->
  <g class="ink-fill" fill-opacity="0.34">
    <rect x="120" y="150" width="250" height="10" rx="3"/>
    <rect x="120" y="172" width="320" height="10" rx="3"/>
    <rect x="120" y="194" width="180" height="10" rx="3"/>
  </g>

  <!-- CLIA label (only allowed text) -->
  <g class="ink-fill" opacity="0.65">
    <text x="120" y="248" font-family="SFMono-Regular, Menlo, Monaco, Consolas, Liberation Mono, Courier New, monospace" font-size="18">CLIA</text>
  </g>

  <rect x="96" y="304" width="160" height="24" rx="8" fill="#F05138"/>
  <circle cx="520" cy="316" r="7" fill="#39FF14" fill-opacity="0.35"/>
</svg>
