<svg xmlns="http://www.w3.org/2000/svg" width="640" height="400" viewBox="0 0 640 400">
  <style>
    .ink-stroke { stroke: #0A0A0A; }
    .ink-fill { fill: #0A0A0A; }
    .muted { stroke-opacity: 0.22; fill-opacity: 0.22; }
    @media (prefers-color-scheme: dark) {
      .ink-stroke { stroke: #F4F4F4; }
      .ink-fill { fill: #F4F4F4; }
    }
  </style>

  <!-- CLIA: retro terminal / SSH-era vibe (background omitted) -->

  <rect x="64" y="72" width="512" height="256" rx="26" fill="none" class="ink-stroke" stroke-width="8"/>
  <rect x="96" y="104" width="448" height="192" rx="14" fill="none" class="ink-stroke muted" stroke-width="6"/>

  <g class="ink-fill" fill-opacity="0.05">
    <rect x="96" y="118" width="448" height="2"/>
    <rect x="96" y="134" width="448" height="2"/>
    <rect x="96" y="150" width="448" height="2"/>
    <rect x="96" y="166" width="448" height="2"/>
    <rect x="96" y="182" width="448" height="2"/>
    <rect x="96" y="198" width="448" height="2"/>
    <rect x="96" y="214" width="448" height="2"/>
    <rect x="96" y="230" width="448" height="2"/>
    <rect x="96" y="246" width="448" height="2"/>
    <rect x="96" y="262" width="448" height="2"/>
  </g>

  <rect x="96" y="304" width="120" height="24" rx="8" fill="#F05138"/>

  <g font-family="SFMono-Regular, Menlo, Monaco, Consolas, Liberation Mono, Courier New, monospace">
    <text x="120" y="156" class="ink-fill" font-size="22" opacity="0.78">$ ssh</text>
    <text x="120" y="188" class="ink-fill" font-size="18" opacity="0.50">establishing secure channel…</text>
    <text x="120" y="220" class="ink-fill" font-size="18" opacity="0.50">key exchange</text>
    <rect x="120" y="232" width="12" height="2" class="ink-fill" opacity="0.55"/>
  </g>

  <g transform="translate(468 142)" fill="none" class="ink-stroke" stroke-width="6" stroke-linecap="round" stroke-linejoin="round" opacity="0.70">
    <path d="M24 28 v-10 a16 16 0 0 0 -32 0 v10"/>
    <rect x="4" y="28" width="40" height="44" rx="10"/>
    <path d="M24 48 v10"/>
  </g>

  <circle cx="520" cy="316" r="7" fill="#39FF14" fill-opacity="0.35"/>
</svg>
