<svg xmlns="http://www.w3.org/2000/svg" width="640" height="400" viewBox="0 0 640 400">
  <style>
    .ink-stroke { stroke: #0A0A0A; }
    .ink-fill { fill: #0A0A0A; }
    .muted { stroke-opacity: 0.22; fill-opacity: 0.22; }
    @media (prefers-color-scheme: dark) {
      .ink-stroke { stroke: #F4F4F4; }
      .ink-fill { fill: #F4F4F4; }
    }
  </style>

  <!-- Retro terminal motif (no text; CLIA-only rule). Background omitted. -->

  <!-- Bezel -->
  <rect x="64" y="72" width="512" height="256" rx="26" fill="none" class="ink-stroke" stroke-width="8"/>

  <!-- Screen -->
  <rect x="96" y="104" width="448" height="192" rx="14" fill="none" class="ink-stroke muted" stroke-width="6"/>

  <!-- Scanlines -->
  <g class="ink-fill" fill-opacity="0.05">
    <rect x="96" y="118" width="448" height="2"/>
    <rect x="96" y="134" width="448" height="2"/>
    <rect x="96" y="150" width="448" height="2"/>
    <rect x="96" y="166" width="448" height="2"/>
    <rect x="96" y="182" width="448" height="2"/>
    <rect x="96" y="198" width="448" height="2"/>
    <rect x="96" y="214" width="448" height="2"/>
    <rect x="96" y="230" width="448" height="2"/>
    <rect x="96" y="246" width="448" height="2"/>
    <rect x="96" y="262" width="448" height="2"/>
  </g>

  <!-- Prompt-ish blocks (abstracted) -->
  <g class="ink-fill" fill-opacity="0.42">
    <rect x="120" y="140" width="210" height="10" rx="3"/>
    <rect x="120" y="162" width="290" height="10" rx="3"/>
    <rect x="120" y="184" width="180" height="10" rx="3"/>
  </g>
  <g class="ink-fill" fill-opacity="0.18">
    <rect x="120" y="208" width="320" height="8" rx="3"/>
    <rect x="120" y="226" width="260" height="8" rx="3"/>
  </g>

  <!-- CLIA wordmark (only allowed text) -->
  <g class="ink-fill" opacity="0.65">
    <text x="120" y="270" font-family="SFMono-Regular, Menlo, Monaco, Consolas, Liberation Mono, Courier New, monospace" font-size="18">CLIA</text>
  </g>

  <!-- Status / brand accents -->
  <rect x="96" y="304" width="120" height="24" rx="8" fill="#F05138"/>

  <!-- Lock glyph -->
  <g transform="translate(468 142)" fill="none" class="ink-stroke" stroke-width="6" stroke-linecap="round" stroke-linejoin="round" opacity="0.70">
    <path d="M24 28 v-10 a16 16 0 0 0 -32 0 v10"/>
    <rect x="4" y="28" width="40" height="44" rx="10"/>
    <path d="M24 48 v10"/>
  </g>

  <circle cx="520" cy="316" r="7" fill="#39FF14" fill-opacity="0.35"/>
</svg>
